<svg width="95" height="17" viewBox="0 0 95 17" fill="none" xmlns="http://www.w3.org/2000/svg">
<g opacity="0.3" clip-path="url(#clip0_55_130)">
<mask id="mask0_55_130" style="mask-type:luminance" maskUnits="userSpaceOnUse" x="0" y="0" width="95" height="17">
<path fill-rule="evenodd" clip-rule="evenodd" d="M0.441406 0.0164795V16.7006H94.9713V0.0164795" fill="white"/>
</mask>
<g mask="url(#mask0_55_130)">
<mask id="mask1_55_130" style="mask-type:luminance" maskUnits="userSpaceOnUse" x="-235" y="-382" width="566" height="445">
<path d="M330.141 -381.155V62.0173H-234.728V-381.155H330.141Z" fill="white"/>
</mask>
<g mask="url(#mask1_55_130)">
<path d="M0.441895 16.3101V0.321167H1.29776V16.3101H0.441895Z" fill="white"/>
</g>
</g>
<path d="M3.73767 16.3062V0.317307H4.85029V16.3062H3.73767Z" fill="white"/>
<path d="M6.64905 16.3061V0.3172H8.14681V16.3061H6.64905Z" fill="white"/>
<path d="M9.51953 16.3061V0.3172H11.6592V16.3061H9.51953Z" fill="white"/>
<path d="M12.5924 16.3064V0.317413H15.7163V16.3064H12.5924Z" fill="white"/>
<path d="M30.6058 11.6564C30.563 8.39777 28.1238 7.65915 28.1238 7.65915C30.0067 7.18122 29.8783 4.53088 29.8783 4.53088C29.8783 0.750888 27.3107 0.316406 24.9571 0.316406H16.6124V16.3053H21.4908L24.4864 16.2619C26.9256 16.2619 28.4233 15.3929 28.4233 15.3929C30.563 14.2633 30.6058 11.6564 30.6058 11.6564ZM24.9571 12.6123H21.4908V4.05295H24.3152C25.6846 4.05295 25.599 5.31295 25.599 5.31295C25.599 6.35571 24.4008 6.5295 24.4008 6.5295H22.0471V9.52743H24.6147C25.8129 9.52743 26.2837 10.1357 26.2837 11.2654C26.2837 12.5688 24.9571 12.6123 24.9571 12.6123Z" fill="white"/>
<path d="M44.9802 13.3949C45.0658 10.7012 44.2955 10.006 44.2955 10.006C43.8676 9.39771 42.7978 8.78943 42.7978 8.78943C43.4825 8.4853 43.8248 8.13771 43.8248 8.13771C45.237 7.00806 45.1514 4.87909 45.1514 4.87909C45.1514 2.44599 43.5253 1.49013 43.5253 1.49013C42.2415 0.317031 39.3743 0.317032 39.3743 0.317032H31.2437V16.306H36.0365V4.09703H39.3743C40.7009 4.35772 40.5725 5.66116 40.5725 5.66116C40.6153 6.61702 39.8879 7.0515 39.3743 7.26875H36.764V10.5708H38.9892C40.5725 11.0053 40.4014 13.6122 40.4014 13.6122C40.487 15.1763 41.0433 16.306 41.0433 16.306H45.7077C45.1086 15.6977 44.9802 13.3949 44.9802 13.3949Z" fill="white"/>
<path d="M46.0924 16.3065V0.317566H50.7141V16.3065H46.0924Z" fill="white"/>
<path d="M61.2144 0.317413V8.39878L56.6356 0.317413H52.0995V16.3064H56.6356V8.31188L61.2144 16.3064H66.1356V0.317413H61.2144Z" fill="white"/>
<path d="M67.4009 16.3065V0.317596H72.2793V16.3065H67.4009Z" fill="white"/>
<path d="M77.1255 0.317307L71.9904 8.09454L77.1255 16.3062H83.2021L77.5535 7.7904L82.7742 0.317307H77.1255Z" fill="white"/>
<mask id="mask2_55_130" style="mask-type:luminance" maskUnits="userSpaceOnUse" x="0" y="0" width="95" height="17">
<path d="M0.441406 0.0164795V16.7006H94.9713V0.0164795" fill="white"/>
</mask>
<g mask="url(#mask2_55_130)">
<path d="M82.1336 13.746C82.1336 13.746 83.1606 15.7446 85.6854 16.3529C85.6854 16.3529 88.3814 17.0481 91.0346 16.266C91.0346 16.266 93.7305 15.6143 94.5864 13.1812C94.5864 13.1812 95.5706 10.6612 94.1585 8.70603C94.1585 8.70603 93.217 7.35913 90.6922 6.62051C90.6922 6.62051 88.9377 6.14258 87.9107 5.88189C87.9107 5.88189 86.5841 5.6212 86.2417 4.96948C86.1562 4.79569 86.0706 4.66534 86.1134 4.4481C86.1134 4.4481 86.199 3.49224 87.3116 3.44879C87.3116 3.44879 88.681 3.275 89.3656 3.70948C89.3656 3.70948 90.2643 4.10052 90.1787 5.18672H94.4152C94.458 4.75224 94.5008 2.66672 92.4895 1.23293C92.4895 1.23293 91.1629 0.0598322 88.0391 0.016384C88.0391 0.016384 84.8296 -0.0270654 82.9467 2.015C82.9467 2.015 81.021 4.01362 82.262 6.83775C82.262 6.83775 82.9895 8.79292 86.3273 9.61844C86.3273 9.61844 89.2801 10.3136 90.0931 10.8784C90.0931 10.8784 90.2643 11.0088 90.4355 11.226C90.6066 11.3998 90.7778 11.704 90.6494 12.095C90.6494 12.095 90.4783 12.8336 89.494 13.0943C89.494 13.0943 87.5683 13.6591 86.3273 12.6598C86.3273 12.6598 85.6854 12.1384 85.6426 10.7481H81.4061C81.4061 11.0957 81.4489 12.7467 82.1336 13.746Z" fill="white"/>
</g>
</g>
<defs>
<clipPath id="clip0_55_130">
<rect width="94.4784" height="16.6212" fill="white" transform="translate(0.441406 0.0137634)"/>
</clipPath>
</defs>
</svg>
