<svg width="124" height="73" viewBox="0 0 124 73" fill="none" xmlns="http://www.w3.org/2000/svg">
<g opacity="0.3" clip-path="url(#clip0_55_120)">
<rect width="122.867" height="72.4627" transform="translate(0.227539 0.0930328)" fill="white"/>
<path d="M0.227295 36.3252V72.5565H61.6609H123.095V36.3252V0.0938644H61.6609H0.227295V36.3252ZM87.9758 18.2579C91.0862 18.449 93.9983 19.385 96.6007 21.0297C98.5961 22.2874 100.4 24.0143 101.769 25.9685C103.443 28.3582 104.51 31.1299 104.88 34.0396C104.984 34.8571 105.01 35.3287 105.01 36.3252C105.01 37.3217 104.984 37.7933 104.88 38.6108C104.333 42.9063 102.287 46.827 99.0653 49.7438C96.192 52.3463 92.5495 53.9571 88.7014 54.332C88.3773 54.3635 87.538 54.4167 87.3784 54.4167H87.3228V46.0844V37.7522H89.6519H91.9811L92.3125 36.9226C92.4939 36.4679 92.6438 36.0882 92.6438 36.0761C92.6438 36.0664 91.4466 36.0591 89.9833 36.0591H87.3228V34.5233V32.9875H90.0026H92.6825L93.0284 32.1216C93.2194 31.6475 93.3791 31.2436 93.3863 31.2267C93.396 31.2049 92.5761 31.1977 89.3327 31.1977H85.2669V42.7733V54.3465L85.1291 54.332C83.6392 54.1675 82.3646 53.8894 81.0657 53.4468C75.0143 51.3788 70.4769 46.2247 69.1974 39.9653C69.0378 39.1792 68.9314 38.3883 68.8661 37.5224C68.8298 37.0242 68.8298 35.6262 68.8661 35.128C69.0136 33.1398 69.4272 31.3234 70.131 29.5772C72.4626 23.7918 77.6192 19.5978 83.7311 18.5119C84.4664 18.3813 85.0541 18.3135 86.0167 18.2506C86.2973 18.2313 87.6203 18.2361 87.9758 18.2579ZM37.3293 33.3406C37.3293 34.949 37.3366 35.3602 37.3608 35.3505C37.3753 35.3456 37.5373 35.2295 37.7163 35.0941C38.0912 34.8111 38.5145 34.5862 38.8168 34.5112C39.3779 34.3685 39.9947 34.3975 40.4736 34.5862C40.9936 34.7942 41.4556 35.2392 41.7361 35.8052C42.2392 36.8162 42.4206 38.5552 42.1884 40.1829C41.9103 42.1541 40.9936 43.1434 39.4384 43.1458C38.8168 43.1458 38.3186 42.9547 37.6413 42.454C37.4914 42.3428 37.3584 42.2509 37.3487 42.2509C37.339 42.2509 37.3293 42.4129 37.3293 42.6137V42.9765H36.0112H34.693V37.67V32.3634L35.9943 31.841C36.7078 31.5556 37.3003 31.321 37.3124 31.3186C37.3221 31.3186 37.3293 32.228 37.3293 33.3406ZM21.2453 36.0954V40.4853L23.4173 40.4901L25.5868 40.4974V41.7309V42.9644H21.9588H18.3309L18.3236 37.3338L18.3188 31.7056H19.7821H21.2453V36.0954ZM31.1134 34.4749C32.0398 34.6152 32.6734 34.9466 33.0822 35.5029C33.37 35.8923 33.5417 36.4002 33.6046 37.0484C33.6191 37.2007 33.6288 38.4028 33.6288 40.137V42.9765H32.3832H31.1376V42.6137C31.1376 42.4129 31.1304 42.2509 31.1207 42.2509C31.1086 42.2533 30.9925 42.3331 30.8595 42.4323C30.2572 42.8797 29.5171 43.1458 28.8641 43.1458C27.4758 43.1458 26.5543 42.4323 26.2882 41.1504C26.0899 40.1878 26.2544 39.2276 26.7236 38.635C27.2387 37.982 28.0635 37.6554 29.2027 37.6554C29.9331 37.6554 30.3346 37.7474 31.1086 38.0835C31.1521 38.1029 31.1473 37.2854 31.1013 37.0677C31.0143 36.659 30.7458 36.3929 30.3104 36.2889C29.9573 36.2018 29.2849 36.2188 28.7262 36.3276C28.407 36.3881 27.9716 36.5332 27.662 36.6759C27.5338 36.7364 27.4274 36.7847 27.4226 36.7847C27.4201 36.7847 27.2726 36.4219 27.0985 35.9793C26.9219 35.5391 26.7744 35.1667 26.7671 35.157C26.7429 35.1183 27.3548 34.8764 27.8192 34.7434C28.3562 34.5886 28.9487 34.487 29.5897 34.4411C29.9984 34.4096 30.8014 34.429 31.1134 34.4749ZM55.9771 34.4386C56.9688 34.5233 57.6291 34.7821 58.1128 35.2755C58.4538 35.6238 58.6666 36.0712 58.7876 36.7001C58.8384 36.9613 58.8408 37.029 58.848 39.9701L58.8577 42.9765H57.6097H56.3641V42.6137C56.3641 42.4129 56.3568 42.2509 56.3472 42.2509C56.3375 42.2509 56.2698 42.2992 56.1972 42.3573C55.2902 43.066 54.2454 43.3054 53.2247 43.0369C52.1266 42.7467 51.5147 41.8832 51.4397 40.5095C51.3696 39.259 51.9138 38.323 52.949 37.9046C53.4182 37.7159 53.9116 37.6434 54.5936 37.6627C55.2346 37.6821 55.6385 37.7691 56.1561 38.0062C56.2577 38.0521 56.3496 38.0908 56.3568 38.0908C56.3641 38.0908 56.3641 37.8659 56.3593 37.5877C56.3447 37.0242 56.3254 36.9299 56.1779 36.7025C55.9191 36.3107 55.3725 36.168 54.4679 36.2526C53.9116 36.3058 53.3698 36.451 52.8861 36.6759C52.7603 36.7364 52.6515 36.7799 52.6466 36.7751C52.6394 36.7702 52.4894 36.3978 52.3129 35.9503L51.9888 35.1352L52.1387 35.0675C52.5499 34.8837 53.1425 34.6974 53.6431 34.5959C54.3856 34.4459 55.3217 34.383 55.9771 34.4386ZM65.2817 34.4411C66.4692 34.5741 67.1827 35.2658 67.4391 36.538C67.5479 37.0653 67.5455 37.0435 67.5552 40.0693L67.5649 42.9765L66.2273 42.9716L64.8898 42.9644V40.3764C64.8898 37.9602 64.8874 37.774 64.8463 37.5829C64.6988 36.9081 64.365 36.6154 63.7313 36.6154C63.3903 36.6154 63.1581 36.6928 62.967 36.8718C62.8195 37.0097 62.7227 37.1741 62.6477 37.4136L62.5921 37.595L62.58 40.2797L62.5679 42.9644L61.2449 42.9716L59.9195 42.9765V38.7922V34.608H61.2498H62.58V34.9707V35.336L62.7687 35.1933C63.3927 34.7216 63.8692 34.5136 64.4908 34.4411C64.7544 34.412 65.018 34.412 65.2817 34.4411ZM45.7293 37.2733C45.7366 39.7161 45.739 39.9532 45.7777 40.0959C45.9035 40.5578 46.1574 40.836 46.5371 40.923C46.6992 40.9593 47.0862 40.9521 47.241 40.9109C47.5989 40.8142 47.8263 40.5554 47.9545 40.1055C48.0077 39.9169 48.0077 39.9145 48.0149 37.2612L48.0222 34.608H49.3621H50.7045L50.6996 38.785L50.6924 42.9644L49.3573 42.9716L48.0198 42.9765V42.5992V42.2219L47.8214 42.3791C47.1563 42.8967 46.6266 43.1047 45.8793 43.1385C44.3894 43.2038 43.4945 42.5266 43.1801 41.0899C43.0543 40.507 43.0543 40.5336 43.0446 37.4668L43.0349 34.608H44.3773H45.7196L45.7293 37.2733Z" fill="#0A0E1E"/>
<path d="M74.4729 31.212C74.4632 31.2217 74.4559 33.8725 74.4559 37.1038V42.9787L77.5349 42.969C80.8484 42.9593 80.7541 42.9642 81.3902 42.8312C82.1932 42.6643 82.9067 42.3112 83.3686 41.854C83.7677 41.4598 84.0241 40.964 84.1475 40.3472C84.2007 40.0812 84.2079 39.3096 84.1571 39.0339C84.0434 38.3784 83.8185 37.8754 83.463 37.469C83.1534 37.1183 82.6406 36.8232 82.1061 36.6878C82.0481 36.6733 82.0021 36.6539 82.0021 36.6443C82.0021 36.6346 82.0771 36.5911 82.169 36.5475C82.8849 36.2041 83.4001 35.5946 83.5887 34.8617C83.7024 34.4191 83.6976 33.737 83.5718 33.2485C83.3275 32.2859 82.5705 31.6159 81.4095 31.3402C80.8702 31.2144 80.9113 31.2144 77.5881 31.2047C75.8854 31.1975 74.4825 31.2023 74.4729 31.212ZM80.5437 32.9582C80.9887 33.0768 81.2983 33.3017 81.441 33.6089C81.5764 33.9015 81.6006 34.0442 81.6006 34.4868C81.6006 34.8545 81.5958 34.9004 81.5353 35.0818C81.4095 35.4615 81.1483 35.7566 80.7831 35.9356C80.3937 36.1267 80.5219 36.117 78.4177 36.1243L76.536 36.1339V34.511V32.8881L78.4419 32.8978C80.3042 32.905 80.3502 32.905 80.5437 32.9582ZM80.8774 37.6988C81.5353 37.8826 81.9489 38.301 82.0916 38.925C82.1545 39.2032 82.1472 39.7474 82.0771 40.011C81.99 40.3375 81.8763 40.5407 81.6538 40.7632C81.4313 40.9882 81.1967 41.1212 80.8533 41.2155C80.6622 41.2711 80.6453 41.2711 78.5991 41.2784L76.536 41.2856V39.4571V37.6287L78.6112 37.6359C80.6791 37.6432 80.6839 37.6432 80.8774 37.6988Z" fill="#0A0E1E"/>
<path d="M98.7994 31.224C97.8271 31.27 96.9854 31.5481 96.1703 32.0947C94.441 33.2581 93.5316 35.5292 93.8194 37.9696C94.1338 40.6446 95.8656 42.5602 98.2963 42.9206C98.6954 42.9786 99.5879 42.9786 99.9604 42.9206C102.091 42.582 103.557 41.0824 103.876 38.9105C103.898 38.7678 103.915 38.6033 103.915 38.5404V38.4291H102.964H102.011L101.98 38.6396C101.772 40.0859 100.957 41.0727 99.7862 41.3049C99.1308 41.4331 98.3955 41.3654 97.8295 41.1211C96.804 40.6785 96.1341 39.7255 95.8511 38.3082C95.7592 37.839 95.7326 37.4931 95.7471 36.9078C95.8027 34.6319 96.8693 33.1178 98.6059 32.8517C98.9276 32.801 99.5782 32.8179 99.8878 32.8856C100.877 33.1009 101.564 33.7757 101.886 34.8495L101.944 35.043H102.93H103.917L103.903 34.9511C103.801 34.3344 103.697 33.974 103.501 33.5846C103.005 32.5954 102.144 31.8746 101.003 31.4997C100.311 31.2724 99.6314 31.1877 98.7994 31.224Z" fill="#0A0E1E"/>
<path d="M72.0692 31.6281L71.0703 32.0296V37.503V42.9764H72.0982H73.1262V37.0991C73.1262 32.4118 73.1189 31.2218 73.0971 31.2242C73.0802 31.2242 72.6158 31.408 72.0692 31.6281Z" fill="#0A0E1E"/>
<path d="M38.236 36.5768C37.9409 36.6445 37.6894 36.7703 37.4209 36.9831L37.329 37.0557V38.7802V40.5047L37.433 40.5942C37.5829 40.7248 37.8345 40.8675 38.0352 40.9376C38.2674 41.0198 38.681 41.044 38.8818 40.9836C39.2663 40.8723 39.484 40.5555 39.5904 39.9532C39.6847 39.4139 39.6847 38.294 39.5904 37.7135C39.4937 37.1137 39.3002 36.7799 38.9591 36.6227C38.7947 36.5478 38.4561 36.526 38.236 36.5768Z" fill="#0A0E1E"/>
<path d="M29.4012 39.2038C29.1207 39.2643 28.8498 39.4626 28.7385 39.6924C28.6563 39.8617 28.6224 40.0334 28.6224 40.2753C28.6224 41.0227 29.1352 41.4483 29.9212 41.3564C30.3155 41.3081 30.6517 41.1895 30.9516 40.9888L31.1378 40.8606V40.1785V39.4941L31.0217 39.436C30.8887 39.3683 30.5622 39.2667 30.3518 39.228C30.1583 39.1917 29.5318 39.1748 29.4012 39.2038Z" fill="#0A0E1E"/>
<path d="M54.6229 39.2035C54.2553 39.2809 53.9578 39.5712 53.8731 39.934C53.8417 40.0742 53.8417 40.4056 53.8756 40.5628C53.9965 41.1336 54.4802 41.4359 55.1478 41.3561C55.542 41.3078 55.8782 41.1892 56.1781 40.9885L56.3643 40.8603V40.1782V39.4938L56.2507 39.4381C56.0959 39.3607 55.8589 39.2833 55.6388 39.2398C55.4187 39.1939 54.7729 39.1721 54.6229 39.2035Z" fill="#0A0E1E"/>
<path d="M0.227783 36.3255V72.5568H61.6614H123.095V36.3255V0.0941696H61.6614H0.227783V36.3255ZM87.9763 18.2582C91.0867 18.4493 93.9987 19.3853 96.6012 21.03C98.5966 22.2877 100.401 24.0146 101.77 25.9689C103.444 28.3585 104.51 31.1302 104.88 34.0399C104.984 34.8574 105.011 35.329 105.011 36.3255C105.011 37.322 104.984 37.7936 104.88 38.6111C104.334 42.9066 102.287 46.8273 99.0658 49.7441C96.1925 52.3466 92.55 53.9574 88.7019 54.3323C88.3778 54.3638 87.5385 54.417 87.3789 54.417H87.3233V46.0847V37.7525H89.6524H91.9816L92.3129 36.9229C92.4943 36.4682 92.6443 36.0885 92.6443 36.0764C92.6443 36.0667 91.4471 36.0594 89.9838 36.0594H87.3233V34.5236V32.9878H90.0031H92.683L93.0289 32.1219C93.2199 31.6478 93.3796 31.2439 93.3868 31.227C93.3965 31.2052 92.5766 31.198 89.3332 31.198H85.2674V42.7736V54.3468L85.1296 54.3323C83.6397 54.1679 82.365 53.8897 81.0662 53.4471C75.0148 51.3792 70.4774 46.225 69.1979 39.9656C69.0383 39.1795 68.9319 38.3886 68.8666 37.5227C68.8303 37.0245 68.8303 35.6265 68.8666 35.1283C69.0141 33.1401 69.4277 31.3237 70.1315 29.5775C72.4631 23.7921 77.6197 19.5981 83.7316 18.5122C84.4669 18.3816 85.0546 18.3138 86.0172 18.251C86.2978 18.2316 87.6208 18.2364 87.9763 18.2582ZM37.3298 33.3409C37.3298 34.9493 37.3371 35.3605 37.3613 35.3508C37.3758 35.3459 37.5378 35.2299 37.7168 35.0944C38.0917 34.8114 38.515 34.5865 38.8173 34.5115C39.3784 34.3688 39.9952 34.3978 40.4741 34.5865C40.9941 34.7945 41.456 35.2395 41.7366 35.8055C42.2397 36.8165 42.4211 38.5555 42.1889 40.1832C41.9108 42.1544 40.9941 43.1437 39.4389 43.1461C38.8173 43.1461 38.3191 42.955 37.6418 42.4543C37.4919 42.3431 37.3589 42.2512 37.3492 42.2512C37.3395 42.2512 37.3298 42.4132 37.3298 42.614V42.9768H36.0117H34.6935V37.6703V32.3638L35.9947 31.8413C36.7082 31.5559 37.3008 31.3213 37.3129 31.3189C37.3226 31.3189 37.3298 32.2283 37.3298 33.3409ZM21.2458 36.0957V40.4856L23.4178 40.4904L25.5873 40.4977V41.7312V42.9647H21.9593H18.3314L18.3241 37.3341L18.3193 31.7059H19.7825H21.2458V36.0957ZM31.1139 34.4752C32.0403 34.6155 32.6739 34.9469 33.0827 35.5032C33.3705 35.8926 33.5422 36.4005 33.6051 37.0487C33.6196 37.201 33.6293 38.4031 33.6293 40.1373V42.9768H32.3837H31.1381V42.614C31.1381 42.4132 31.1308 42.2512 31.1212 42.2512C31.1091 42.2536 30.993 42.3334 30.86 42.4326C30.2577 42.88 29.5176 43.1461 28.8646 43.1461C27.4763 43.1461 26.5548 42.4326 26.2887 41.1507C26.0904 40.1881 26.2548 39.2279 26.7241 38.6353C27.2392 37.9823 28.064 37.6558 29.2032 37.6558C29.9336 37.6558 30.3351 37.7477 31.1091 38.0839C31.1526 38.1032 31.1478 37.2857 31.1018 37.068C31.0147 36.6593 30.7463 36.3932 30.3109 36.2892C29.9578 36.2021 29.2854 36.2191 28.7267 36.3279C28.4074 36.3884 27.9721 36.5335 27.6625 36.6762C27.5343 36.7367 27.4279 36.785 27.4231 36.785C27.4206 36.785 27.2731 36.4222 27.099 35.9796C26.9224 35.5394 26.7749 35.167 26.7676 35.1573C26.7434 35.1186 27.3553 34.8767 27.8197 34.7437C28.3567 34.5889 28.9492 34.4873 29.5902 34.4414C29.9989 34.4099 30.8019 34.4293 31.1139 34.4752ZM55.9776 34.439C56.9692 34.5236 57.6295 34.7824 58.1133 35.2758C58.4543 35.6241 58.6671 36.0715 58.7881 36.7004C58.8389 36.9616 58.8413 37.0293 58.8485 39.9704L58.8582 42.9768H57.6102H56.3646V42.614C56.3646 42.4132 56.3573 42.2512 56.3477 42.2512C56.338 42.2512 56.2703 42.2996 56.1977 42.3576C55.2907 43.0663 54.2459 43.3057 53.2252 43.0372C52.1271 42.747 51.5152 41.8835 51.4402 40.5098C51.3701 39.2593 51.9143 38.3233 52.9495 37.9049C53.4187 37.7162 53.9121 37.6437 54.5941 37.663C55.2351 37.6824 55.639 37.7694 56.1566 38.0065C56.2582 38.0524 56.3501 38.0911 56.3573 38.0911C56.3646 38.0911 56.3646 37.8662 56.3597 37.588C56.3452 37.0245 56.3259 36.9302 56.1784 36.7028C55.9196 36.311 55.3729 36.1683 54.4684 36.2529C53.9121 36.3061 53.3703 36.4513 52.8866 36.6762C52.7608 36.7367 52.652 36.7802 52.6471 36.7754C52.6399 36.7705 52.4899 36.3981 52.3134 35.9506L51.9893 35.1355L52.1392 35.0678C52.5504 34.884 53.1429 34.6978 53.6436 34.5962C54.3861 34.4462 55.3222 34.3833 55.9776 34.439ZM65.2821 34.4414C66.4697 34.5744 67.1832 35.2661 67.4396 36.5383C67.5484 37.0656 67.546 37.0438 67.5557 40.0696L67.5653 42.9768L66.2278 42.9719L64.8903 42.9647V40.3767C64.8903 37.9605 64.8879 37.7743 64.8468 37.5832C64.6992 36.9084 64.3655 36.6157 63.7318 36.6157C63.3908 36.6157 63.1586 36.6931 62.9675 36.8721C62.82 37.01 62.7232 37.1744 62.6482 37.4139L62.5926 37.5953L62.5805 40.28L62.5684 42.9647L61.2454 42.9719L59.92 42.9768V38.7925V34.6083H61.2503H62.5805V34.9711V35.3363L62.7692 35.1936C63.3932 34.7219 63.8696 34.5139 64.4912 34.4414C64.7549 34.4123 65.0185 34.4123 65.2821 34.4414ZM45.7298 37.2736C45.737 39.7164 45.7395 39.9535 45.7782 40.0962C45.9039 40.5581 46.1579 40.8363 46.5376 40.9233C46.6997 40.9596 47.0867 40.9524 47.2414 40.9113C47.5994 40.8145 47.8268 40.5557 47.9549 40.1058C48.0082 39.9172 48.0082 39.9148 48.0154 37.2615L48.0227 34.6083H49.3626H50.705L50.7001 38.7853L50.6929 42.9647L49.3578 42.9719L48.0203 42.9768V42.5995V42.2222L47.8219 42.3794C47.1568 42.897 46.6271 43.105 45.8797 43.1388C44.3899 43.2041 43.495 42.5269 43.1805 41.0902C43.0548 40.5073 43.0548 40.5339 43.0451 37.4671L43.0354 34.6083H44.3778H45.7201L45.7298 37.2736Z" fill="#0A0E1E"/>
</g>
<defs>
<clipPath id="clip0_55_120">
<rect width="122.867" height="72.4627" fill="white" transform="translate(0.227539 0.0930328)"/>
</clipPath>
</defs>
</svg>
