<svg width="52" height="51" viewBox="0 0 52 51" fill="none" xmlns="http://www.w3.org/2000/svg">
<path d="M26 35.882V31.682M26 31.682C27.0772 31.682 27.9505 30.7418 27.9505 29.582C27.9505 28.4222 27.0772 27.482 26 27.482C24.9227 27.482 24.0494 28.4222 24.0494 29.582C24.0494 30.7418 24.9227 31.682 26 31.682ZM37.7033 19.5832V19.082C37.7033 12.1232 32.4636 6.48201 26 6.48201C19.5363 6.48201 14.2966 12.1232 14.2966 19.082V19.5832M37.7033 19.5832C36.2628 19.082 34.3272 19.082 30.8358 19.082H21.1641C17.6727 19.082 15.7371 19.082 14.2966 19.5832M37.7033 19.5832C37.8791 19.6443 38.0475 19.7129 38.2105 19.7899C40.2085 20.7338 41.7482 22.5353 42.4559 24.7573C42.9867 26.4239 42.8241 28.5254 42.4988 32.7284C42.2188 36.3457 42.0788 38.1544 41.4336 39.5739C40.5735 41.4665 39.084 42.942 37.2607 43.7077C35.8932 44.282 34.2074 44.282 30.8358 44.282H21.1641C17.7925 44.282 16.1067 44.282 14.7392 43.7077C12.9159 42.942 11.4265 41.4665 10.5663 39.5739C9.92114 38.1544 9.78114 36.3457 9.50114 32.7284C9.17582 28.5254 9.01315 26.4239 9.54396 24.7573C10.2517 22.5353 11.7914 20.7338 13.7894 19.7899C13.9524 19.7129 14.1208 19.6443 14.2966 19.5832" stroke="white" stroke-width="3.6" stroke-linecap="round" stroke-linejoin="round"/>
</svg>
