<svg width="96" height="96" viewBox="0 0 96 96" fill="none" xmlns="http://www.w3.org/2000/svg">
<g id="logo" opacity="0.4">
<g id="Group 3">
<g id="Group 4">
<path id="Subtract" fill-rule="evenodd" clip-rule="evenodd" d="M47.9998 73.1029C62.0447 73.1029 73.4305 61.7172 73.4305 47.6722C73.4305 33.6272 62.0447 22.2415 47.9998 22.2415C33.9548 22.2415 22.5691 33.6272 22.5691 47.6722C22.5691 61.7172 33.9548 73.1029 47.9998 73.1029ZM47.9993 62.4793C56.177 62.4793 62.8063 55.8499 62.8063 47.6722C62.8063 39.4945 56.177 32.8652 47.9993 32.8652C39.8216 32.8652 33.1922 39.4945 33.1922 47.6722C33.1922 55.8499 39.8216 62.4793 47.9993 62.4793Z" fill="#0F1221"/>
<g id="Group 2">
<path id="Subtract_2" fill-rule="evenodd" clip-rule="evenodd" d="M48 95.1602C74.2269 95.1602 95.4881 73.8991 95.4881 47.6721C95.4881 21.4452 74.2269 0.184067 48 0.184067C21.7731 0.184067 0.511917 21.4452 0.511917 47.6721C0.511917 73.8991 21.7731 95.1602 48 95.1602ZM47.9997 83.7391C67.9189 83.7391 84.0666 67.5914 84.0666 47.6722C84.0666 27.753 67.9189 11.6052 47.9997 11.6052C28.0805 11.6052 11.9328 27.753 11.9328 47.6722C11.9328 67.5914 28.0805 83.7391 47.9997 83.7391Z" fill="#0F1221"/>
</g>
</g>
</g>
</g>
</svg>
