<svg width="77" height="30" viewBox="0 0 77 30" fill="none" xmlns="http://www.w3.org/2000/svg">
<path fill-rule="evenodd" clip-rule="evenodd" d="M15.2836 22.3531C19.5824 22.3531 23.0673 18.8683 23.0673 14.5695C23.0673 10.2707 19.5824 6.78586 15.2836 6.78586C10.9848 6.78586 7.5 10.2707 7.5 14.5695C7.5 18.8683 10.9848 22.3531 15.2836 22.3531ZM15.2835 19.1015C17.7864 19.1015 19.8155 17.0724 19.8155 14.5695C19.8155 12.0665 17.7864 10.0375 15.2835 10.0375C12.7805 10.0375 10.7514 12.0665 10.7514 14.5695C10.7514 17.0724 12.7805 19.1015 15.2835 19.1015Z" fill="#DEC07E"/>
<path fill-rule="evenodd" clip-rule="evenodd" d="M15.2838 29.1042C23.3111 29.1042 29.8186 22.5968 29.8186 14.5694C29.8186 6.54211 23.3111 0.034668 15.2838 0.034668C7.25646 0.034668 0.749023 6.54211 0.749023 14.5694C0.749023 22.5968 7.25646 29.1042 15.2838 29.1042ZM15.2837 25.6085C21.3804 25.6085 26.3228 20.6662 26.3228 14.5695C26.3228 8.47274 21.3804 3.53038 15.2837 3.53038C9.187 3.53038 4.24463 8.47274 4.24463 14.5695C4.24463 20.6662 9.187 25.6085 15.2837 25.6085Z" fill="#DEC07E"/>
<path d="M38.1069 14.2695C38.1069 15.0135 38.2509 15.6735 38.5389 16.2495C38.8389 16.8135 39.2529 17.2575 39.7809 17.5815C40.3209 17.9055 40.9509 18.0675 41.6709 18.0675C42.3789 18.0675 42.9969 17.9055 43.5249 17.5815C44.0649 17.2575 44.4789 16.8135 44.7669 16.2495C45.0669 15.6735 45.2169 15.0135 45.2169 14.2695C45.2169 13.5255 45.073 12.8715 44.785 12.3075C44.4969 11.7315 44.0889 11.2815 43.5609 10.9575C43.0329 10.6335 42.4029 10.4715 41.6709 10.4715C40.9509 10.4715 40.3209 10.6335 39.7809 10.9575C39.2529 11.2815 38.8389 11.7315 38.5389 12.3075C38.2509 12.8715 38.1069 13.5255 38.1069 14.2695ZM34.8849 14.2695C34.8849 13.2975 35.0529 12.4095 35.3889 11.6055C35.7369 10.8015 36.2169 10.1055 36.8289 9.51752C37.4409 8.92952 38.1609 8.47952 38.9889 8.16752C39.8169 7.84352 40.7109 7.68152 41.6709 7.68152C42.6429 7.68152 43.5369 7.84352 44.3529 8.16752C45.1809 8.47952 45.9009 8.92952 46.5129 9.51752C47.1249 10.1055 47.5989 10.8015 47.935 11.6055C48.271 12.4095 48.439 13.2975 48.439 14.2695C48.439 15.2415 48.271 16.1355 47.935 16.9515C47.611 17.7675 47.143 18.4755 46.531 19.0755C45.931 19.6755 45.2169 20.1435 44.3889 20.4795C43.5609 20.8035 42.6549 20.9655 41.6709 20.9655C40.6749 20.9655 39.7629 20.8035 38.9349 20.4795C38.1069 20.1435 37.3869 19.6755 36.7749 19.0755C36.1749 18.4755 35.7069 17.7675 35.3709 16.9515C35.0469 16.1355 34.8849 15.2415 34.8849 14.2695ZM53.5382 14.8635H56.6882L60.6302 20.5695H57.0662L53.5382 14.8635ZM50.3882 7.96952H53.4302V20.5695H50.3882V7.96952ZM52.2962 10.5435V7.96952H54.9782C56.0582 7.96952 56.9582 8.14352 57.6782 8.49152C58.3982 8.83952 58.9442 9.32552 59.3162 9.94952C59.6882 10.5615 59.8742 11.2755 59.8742 12.0915C59.8742 12.8955 59.6882 13.6095 59.3162 14.2335C58.9442 14.8455 58.3982 15.3255 57.6782 15.6735C56.9582 16.0215 56.0582 16.1955 54.9782 16.1955H52.2962V13.8375H54.7622C55.1702 13.8375 55.5182 13.7775 55.8062 13.6575C56.1062 13.5255 56.3342 13.3395 56.4902 13.0995C56.6462 12.8475 56.7242 12.5475 56.7242 12.1995C56.7242 11.8515 56.6462 11.5575 56.4902 11.3175C56.3342 11.0655 56.1062 10.8735 55.8062 10.7415C55.5182 10.6095 55.1702 10.5435 54.7622 10.5435H52.2962ZM64.5444 14.2695C64.5444 15.0135 64.6884 15.6735 64.9764 16.2495C65.2764 16.8135 65.6904 17.2575 66.2184 17.5815C66.7584 17.9055 67.3884 18.0675 68.1084 18.0675C68.8164 18.0675 69.4344 17.9055 69.9624 17.5815C70.5024 17.2575 70.9164 16.8135 71.2044 16.2495C71.5044 15.6735 71.6544 15.0135 71.6544 14.2695C71.6544 13.5255 71.5105 12.8715 71.2225 12.3075C70.9344 11.7315 70.5264 11.2815 69.9984 10.9575C69.4704 10.6335 68.8404 10.4715 68.1084 10.4715C67.3884 10.4715 66.7584 10.6335 66.2184 10.9575C65.6904 11.2815 65.2764 11.7315 64.9764 12.3075C64.6884 12.8715 64.5444 13.5255 64.5444 14.2695ZM61.3224 14.2695C61.3224 13.2975 61.4904 12.4095 61.8264 11.6055C62.1744 10.8015 62.6544 10.1055 63.2664 9.51752C63.8784 8.92952 64.5984 8.47952 65.4264 8.16752C66.2544 7.84352 67.1484 7.68152 68.1084 7.68152C69.0804 7.68152 69.9744 7.84352 70.7904 8.16752C71.6184 8.47952 72.3384 8.92952 72.9504 9.51752C73.5624 10.1055 74.0364 10.8015 74.3725 11.6055C74.7085 12.4095 74.8765 13.2975 74.8765 14.2695C74.8765 15.2415 74.7085 16.1355 74.3725 16.9515C74.0485 17.7675 73.5805 18.4755 72.9685 19.0755C72.3685 19.6755 71.6544 20.1435 70.8264 20.4795C69.9984 20.8035 69.0924 20.9655 68.1084 20.9655C67.1124 20.9655 66.2004 20.8035 65.3724 20.4795C64.5444 20.1435 63.8244 19.6755 63.2124 19.0755C62.6124 18.4755 62.1444 17.7675 61.8084 16.9515C61.4844 16.1355 61.3224 15.2415 61.3224 14.2695Z" fill="white"/>
</svg>
