<svg width="16" height="16" viewBox="0 0 16 16" fill="none" xmlns="http://www.w3.org/2000/svg">
<g clip-path="url(#clip0_61_273)">
<path d="M8.05872 15.7565C12.215 15.7565 15.5587 12.4127 15.5587 8.25647C15.5587 4.10019 12.215 0.75647 8.05872 0.75647C3.90244 0.75647 0.558716 4.10019 0.558716 8.25647C0.558716 12.4127 3.90244 15.7565 8.05872 15.7565Z" fill="#2775CA"/>
<path d="M10.1212 9.44397C10.1212 8.35024 9.46496 7.97524 8.15246 7.81902C7.21496 7.69399 7.02746 7.44402 7.02746 7.00647C7.02746 6.56892 7.33999 6.28774 7.96496 6.28774C8.52746 6.28774 8.83999 6.47524 8.99621 6.94399C9.02749 7.03774 9.12124 7.10022 9.21499 7.10022H9.71494C9.83996 7.10022 9.93371 7.00647 9.93371 6.88152V6.85024C9.80869 6.16272 9.24619 5.63149 8.52746 5.56902V4.81902C8.52746 4.69399 8.43371 4.60024 8.27749 4.56897H7.80874C7.68371 4.56897 7.58996 4.66272 7.55869 4.81902V5.53774C6.62119 5.66277 6.02749 6.28774 6.02749 7.06902C6.02749 8.10027 6.65246 8.50647 7.96496 8.66277C8.83999 8.819 9.12124 9.0065 9.12124 9.50652C9.12124 10.0065 8.68369 10.3503 8.08999 10.3503C7.27744 10.3503 6.99619 10.0065 6.90244 9.53772C6.87124 9.41277 6.77749 9.35022 6.68374 9.35022H6.15244C6.02749 9.35022 5.93374 9.44397 5.93374 9.56899V9.60027C6.05869 10.3815 6.55871 10.944 7.58996 11.1003V11.8503C7.58996 11.9752 7.68371 12.069 7.83994 12.1002H8.30869C8.43371 12.1002 8.52746 12.0065 8.55874 11.8503V11.1003C9.49624 10.944 10.1212 10.2877 10.1212 9.44397Z" fill="white"/>
<path d="M6.46496 12.7252C4.02746 11.8502 2.77744 9.13147 3.68374 6.72517C4.15249 5.41267 5.18374 4.41269 6.46496 3.94394C6.58999 3.88147 6.65246 3.78772 6.65246 3.63142V3.19394C6.65246 3.06892 6.58999 2.97517 6.46496 2.94397C6.43369 2.94397 6.37122 2.94397 6.33994 2.97517C3.37122 3.91267 1.74619 7.06897 2.68369 10.0377C3.24619 11.7877 4.58996 13.1314 6.33994 13.6939C6.46496 13.7564 6.58999 13.6939 6.62119 13.5689C6.65246 13.5377 6.65246 13.5064 6.65246 13.444V13.0064C6.65246 12.9127 6.55871 12.7877 6.46496 12.7252ZM9.77749 2.97517C9.65247 2.91269 9.52744 2.97517 9.49624 3.10019C9.46497 3.13147 9.46496 3.16267 9.46496 3.22522V3.66269C9.46496 3.78772 9.55871 3.91267 9.65246 3.97522C12.09 4.85017 13.34 7.56892 12.4337 9.97522C11.9649 11.2877 10.9337 12.2877 9.65246 12.7564C9.52744 12.8189 9.46496 12.9127 9.46496 13.069V13.5064C9.46496 13.6315 9.52744 13.7252 9.65246 13.7564C9.68374 13.7564 9.74622 13.7564 9.77749 13.7252C12.7462 12.7877 14.3712 9.63142 13.4337 6.66269C12.8712 4.88144 11.4962 3.53767 9.77749 2.97517Z" fill="white"/>
</g>
<defs>
<clipPath id="clip0_61_273">
<rect width="15" height="15" fill="white" transform="translate(0.558716 0.75647)"/>
</clipPath>
</defs>
</svg>
